<svg width="800" height="800" viewBox="0 0 24 24" data-name="Flat Color" xmlns="http://www.w3.org/2000/svg" class="icon flat-color"><path d="M21.89 14.55C21.76 14.29 18.54 8 12 8s-9.76 6.29-9.89 6.55a1 1 0 0 0 0 .9C2.24 15.71 5.46 22 12 22s9.76-6.29 9.89-6.55a1 1 0 0 0 0-.9Z" style="fill:#000"/><path d="M11 5V3a1 1 0 0 1 2 0v2a1 1 0 0 1-2 0Zm-4.13-.89a1 1 0 0 0-1.74 1l1 1.73a1 1 0 1 0 1.74-1ZM12 12a3 3 0 1 0 3 3 3 3 0 0 0-3-3Zm6.5-8.26a1 1 0 0 0-1.37.37l-1 1.73a1 1 0 0 0 1.74 1l1-1.73a1 1 0 0 0-.37-1.37Z" style="fill:#2ca9bc"/></svg>