<svg width="120" height="120" viewBox="0 0 4.8 4.8" xmlns="http://www.w3.org/2000/svg"><path d="m3.852 2.311-.06.035a.272.272 0 0 1-.365-.085.084.084 0 0 0-.073-.04.09.09 0 0 0-.089.066.944.944 0 0 0-.047.293.961.961 0 0 0 .04.27H3.3a1.35 1.35 0 0 0 1.097-.568.589.589 0 0 0-.545.029Z"/><path d="M2.7.9a.547.547 0 0 0-.02.15.6.6 0 0 0 .139.385l.018.023A.775.775 0 0 1 3 2.134l-.15.641a1.433 1.433 0 0 0 .212.055 1.085 1.085 0 0 1-.029-.248 1.169 1.169 0 0 1 .054-.348.275.275 0 0 1 .26-.192.265.265 0 0 1 .224.121.091.091 0 0 0 .124.029l.06-.035a.767.767 0 0 1 .743-.028 1.312 1.312 0 0 0 .131-.364h-.056a.353.353 0 0 1-.34-.266.173.173 0 0 0-.15-.127l-.192-.017a.353.353 0 0 1-.256-.14.361.361 0 0 1-.065-.283.6.6 0 0 0 .016-.136.654.654 0 0 0-.203-.475L3.2.149a1.326 1.326 0 0 0-.563.172.785.785 0 0 1 .064.578Z"/><path d="M3.763.803a.839.839 0 0 1-.013.172.173.173 0 0 0 .031.139.174.174 0 0 0 .126.071L4.1 1.2a.352.352 0 0 1 .311.259.172.172 0 0 0 .162.126h.076v-.089A1.35 1.35 0 0 0 3.463.15l.043.042a.848.848 0 0 1 .257.611ZM2.687 2.7l.138-.6a.6.6 0 0 0-.125-.524l-.018-.02a.786.786 0 0 1-.15-.708.6.6 0 0 0-.043-.426A1.35 1.35 0 0 0 2.687 2.7Zm1.513.667-.6.124a.858.858 0 0 0 0-.088.45.45 0 0 0-.464-.438 1.212 1.212 0 0 1-.564-.12l-.283-.125a.384.384 0 0 0-.241-.02.1.1 0 0 0-.03.008l-.186.084a.9.9 0 0 1 .042.467l-.178.952c0 .023-.012.043-.018.066l.803.308a.913.913 0 0 0 .34.065.925.925 0 0 0 .347-.067l1.243-.504A.385.385 0 0 0 4.63 3.6a.372.372 0 0 0-.428-.233Zm-3-.774-.872-.132a.15.15 0 0 0-.176.148v1.8a.15.15 0 0 0 .15.15h.66a.462.462 0 0 0 .439-.403l.176-.953a.564.564 0 0 0-.091-.426.432.432 0 0 0-.286-.185Z"/></svg>