<svg height="150" width="150" xmlns="http://www.w3.org/2000/svg" viewBox="0 0 6 6" xml:space="preserve"><path d="M5.793 1.05c-.019-.075-.094-.112-.17-.112H5.06V.375c0-.075-.038-.15-.112-.17-.075-.038-.15-.019-.207.038l-.75.75a.17.17 0 0 0-.055.131v.675L2.867 2.868a.18.18 0 0 0 0 .262c.038.038.095.055.131.055s.095-.019.131-.055l1.069-1.069h.678a.173.173 0 0 0 .131-.055l.75-.75a.173.173 0 0 0 .038-.207z"/><path d="M3.394 3.394c-.095.112-.244.17-.395.17s-.3-.055-.395-.17a.543.543 0 0 1 0-.788l.525-.525c-.038-.019-.095-.019-.131-.019-.525 0-.938.413-.938.938s.413.938.938.938.938-.413.938-.938c0-.038 0-.095-.019-.131l-.525.525z"/><path d="M5.269 2.268a.515.515 0 0 1-.395.17H4.35l-.131.131c.055.131.075.282.075.43 0 .73-.582 1.313-1.313 1.313S1.668 3.73 1.668 2.999a1.305 1.305 0 0 1 1.743-1.237l.15-.112v-.525c0-.15.055-.3.17-.395l.188-.188A2.579 2.579 0 0 0 3 .375C1.557.375.375 1.557.375 3S1.555 5.625 3 5.625 5.625 4.444 5.625 3c0-.318-.055-.618-.17-.919l-.188.188z"/></svg>