<svg width="74" height="36" viewBox="0 0 74 36" fill="none" xmlns="http://www.w3.org/2000/svg">
<path fill-rule="evenodd" clip-rule="evenodd" d="M5.16354 0.140625C4.03858 0.140625 2.9597 0.510129 2.16423 1.16785C1.36876 1.82557 0.921875 2.71763 0.921875 3.64778V31.705C0.921875 32.6352 1.36876 33.5273 2.16423 34.185C2.9597 34.8427 4.03858 35.2122 5.16354 35.2122H68.7885C69.9135 35.2122 70.9924 34.8427 71.7879 34.185C72.5833 33.5273 73.0302 32.6352 73.0302 31.705V3.64778C73.0302 2.71763 72.5833 1.82557 71.7879 1.16785C70.9924 0.510129 69.9135 0.140625 68.7885 0.140625H5.16354ZM11.5218 3.64778H62.4282C62.4298 5.04164 63.1007 6.37793 64.2933 7.36304C65.4859 8.34816 67.1028 8.9015 68.7885 8.9015V26.4443C67.107 26.4513 65.4973 27.0087 64.3116 27.9946C63.126 28.9805 62.461 30.3147 62.4621 31.705H11.5176C11.4964 30.3226 10.8179 29.0026 9.62879 28.0306C8.43971 27.0586 6.83564 26.5127 5.16354 26.5109V8.90852C5.99888 8.90852 6.82603 8.77242 7.59772 8.508C8.36942 8.24358 9.07053 7.85602 9.66101 7.36747C10.2515 6.87892 10.7197 6.29895 11.039 5.66071C11.3583 5.02247 11.5224 4.33847 11.5218 3.64778Z" fill="#9B00C2"/>
</svg>
