<svg width="27" height="27" viewBox="0 0 1.62 1.62" xmlns="http://www.w3.org/2000/svg"><g data-name="Layer 2"><path fill="none" d="M0 0h1.62v1.62H0V0z" data-name="invisible box"/><path d="M.81.068a.071.071 0 0 0-.057.034L.446.575a.078.078 0 0 0 0 .068.064.064 0 0 0 .057.034h.611a.071.071 0 0 0 .057-.034.061.061 0 0 0 0-.068L.867.102A.064.064 0 0 0 .81.068Zm.641 1.383H.979a.068.068 0 0 1-.068-.068V.911A.068.068 0 0 1 .979.843h.473a.068.068 0 0 1 .068.068v.473a.068.068 0 0 1-.068.068ZM.439.81a.338.338 0 1 0 .338.338A.338.338 0 0 0 .439.81Z" data-name="icons Q2"/></g></svg>