<svg xmlns="http://www.w3.org/2000/svg" width="27" height="27" viewBox="0 0 27 27" style="enable-background:new 0 0 98.736 98.736" xml:space="preserve"><path d="M7.224 15.516c0-1.399.462-2.69 1.238-3.734a4.567 4.567 0 0 0-3.064-1.179 4.592 4.592 0 0 0-4.591 4.591s1.08 9.646 4.591 9.646c1.357 0 2.35-1.443 3.058-3.21-.827-2.722-1.162-5.439-1.228-6.023l-.005-.091zm-1.826-5.247a4.054 4.054 0 0 0 3.56-2.113 5.595 5.595 0 0 1-1.095-3.328c0-.565.086-1.111.241-1.625a4.037 4.037 0 0 0-2.706-1.041 4.054 4.054 0 0 0 0 8.109zm16.204.333a4.567 4.567 0 0 0-3.064 1.179 6.232 6.232 0 0 1 1.238 3.734l-.005.09c-.066.585-.401 3.301-1.228 6.023.709 1.768 1.702 3.21 3.058 3.21 3.511 0 4.591-9.646 4.591-9.646a4.591 4.591 0 0 0-4.591-4.591z"/><path d="M18.042 8.156a4.054 4.054 0 1 0 3.56-5.995 4.036 4.036 0 0 0-2.706 1.041 5.601 5.601 0 0 1-.854 4.954zM13.5 10.05a5.466 5.466 0 0 0-5.466 5.466S9.32 27 13.5 27s5.466-11.484 5.466-11.484A5.466 5.466 0 0 0 13.5 10.05zm4.827-5.224A4.827 4.827 0 0 1 13.5 9.653a4.827 4.827 0 0 1-4.827-4.827 4.827 4.827 0 0 1 9.653 0z"/></svg>