<svg width="102" height="50" viewBox="0 0 102 50" fill="none" xmlns="http://www.w3.org/2000/svg">
<path d="M80.7167 42.8359V49.8502H29.8167V42.8359C29.8167 42.8359 29.8167 28.8073 55.2667 28.8073C80.7167 28.8073 80.7167 42.8359 80.7167 42.8359ZM67.9917 11.2715C67.9917 9.19052 67.2454 7.1563 65.8471 5.42606C64.4489 3.69581 62.4615 2.34725 60.1363 1.5509C57.8111 0.754559 55.2526 0.546199 52.7841 0.952172C50.3157 1.35814 48.0484 2.36022 46.2687 3.83167C44.4891 5.30312 43.2772 7.17787 42.7862 9.21884C42.2952 11.2598 42.5472 13.3753 43.5103 15.2979C44.4734 17.2204 46.1044 18.8636 48.197 20.0198C50.2896 21.1759 52.7499 21.7929 55.2667 21.7929C58.6415 21.7929 61.8782 20.6844 64.2646 18.7113C66.651 16.7381 67.9917 14.0619 67.9917 11.2715ZM81.565 29.0177C83.8836 30.7864 85.7529 32.9192 87.0638 35.2917C88.3747 37.6642 89.1009 40.2288 89.2 42.8359V49.8502H101.925V42.8359C101.925 42.8359 101.925 30.7362 81.565 29.0177ZM76.475 0.750004C75.1934 0.750638 73.9198 0.91629 72.6999 1.24101C75.1815 4.1834 76.512 7.68429 76.512 11.2715C76.512 14.8587 75.1815 18.3595 72.6999 21.3019C73.9198 21.6267 75.1934 21.7923 76.475 21.7929C79.8499 21.7929 83.0865 20.6844 85.4729 18.7113C87.8593 16.7381 89.2 14.0619 89.2 11.2715C89.2 8.48101 87.8593 5.80483 85.4729 3.83167C83.0865 1.85851 79.8499 0.750004 76.475 0.750004ZM34.0583 18.2858H21.3333V7.76432H12.85V18.2858H0.125V25.3001H12.85V35.8216H21.3333V25.3001H34.0583V18.2858Z" fill="#9B00C2"/>
</svg>
