<svg width="94" height="81" viewBox="0 0 94 81" fill="none" xmlns="http://www.w3.org/2000/svg">
<path d="M55.8693 51.0117V58.026C55.8693 58.9561 55.4224 59.8482 54.6269 60.5059C53.8314 61.1636 52.7526 61.5331 51.6276 61.5331H21.9359L9.21094 72.0546V36.983C9.21094 36.0529 9.65783 35.1608 10.4533 34.5031C11.2488 33.8454 12.3276 33.4759 13.4526 33.4759H21.9359M85.5609 47.5045L72.8359 36.983H43.1443C42.0193 36.983 40.9404 36.6135 40.145 35.9558C39.3495 35.2981 38.9026 34.406 38.9026 33.4759V12.4329C38.9026 11.5028 39.3495 10.6107 40.145 9.953C40.9404 9.29528 42.0193 8.92578 43.1443 8.92578H81.3193C82.4442 8.92578 83.5231 9.29528 84.3186 9.953C85.1141 10.6107 85.5609 11.5028 85.5609 12.4329V47.5045Z" stroke="#9B00C2" stroke-width="16.6667" stroke-linecap="round" stroke-linejoin="round"/>
</svg>
