<svg width="96" height="76" viewBox="0 0 96 76" fill="none" xmlns="http://www.w3.org/2000/svg">
<path d="M94.5776 73.8832C94.2585 74.3403 93.7994 74.7198 93.2465 74.9837C92.6937 75.2475 92.0665 75.3864 91.4282 75.3862H4.17105C3.53316 75.3857 2.90668 75.2464 2.3545 74.9823C1.80232 74.7183 1.34388 74.3387 1.02522 73.8818C0.706565 73.4249 0.538899 72.9068 0.539063 72.3793C0.539226 71.8519 0.707214 71.3338 1.02616 70.877C7.94765 60.9831 18.6139 53.8886 31.0617 50.5255C24.9045 47.4948 20.1207 42.8767 17.445 37.3804C14.7693 31.8841 14.3496 25.8136 16.2504 20.101C18.1513 14.3884 22.2675 9.34971 27.9669 5.75862C33.6664 2.16754 40.6339 0.222656 47.7996 0.222656C54.9653 0.222656 61.9329 2.16754 67.6323 5.75862C73.3318 9.34971 77.448 14.3884 79.3488 20.101C81.2496 25.8136 80.83 31.8841 78.1543 37.3804C75.4786 42.8767 70.6948 47.4948 64.5375 50.5255C76.9853 53.8886 87.6516 60.9831 94.5731 70.877C94.8929 71.3337 95.0617 71.8519 95.0625 72.3796C95.0633 72.9073 94.896 73.4259 94.5776 73.8832Z" fill="#9B00C2"/>
</svg>
