<svg width="90" height="75" viewBox="0 0 90 75" fill="none" xmlns="http://www.w3.org/2000/svg">
<path d="M13.1625 50.8442V48.2138H6.8V50.8442C6.8 55.7275 9.14617 60.4108 13.3224 63.8639C17.4986 67.3169 23.1627 69.2568 29.0688 69.2568H38.6125V63.996H29.0688C24.8502 63.996 20.8043 62.6104 17.8213 60.144C14.8383 57.6775 13.1625 54.3323 13.1625 50.8442ZM70.425 24.5405V27.1709H76.7875V24.5405C76.7875 19.6572 74.4413 14.9739 70.2651 11.5208C66.0889 8.06782 60.4248 6.12793 54.5188 6.12793H44.975V11.3887H54.5188C56.6076 11.3887 58.676 11.7288 60.6058 12.3898C62.5357 13.0507 64.2891 14.0195 65.7662 15.2408C67.2432 16.462 68.4149 17.9119 69.2142 19.5075C70.0136 21.1032 70.425 22.8134 70.425 24.5405ZM29.0688 24.5405H9.98125C7.45009 24.5405 5.0226 25.3719 3.2328 26.8518C1.443 28.3316 0.4375 30.3388 0.4375 32.4316V37.6924H6.8V32.4316C6.8 31.734 7.13517 31.065 7.73177 30.5717C8.32837 30.0784 9.13753 29.8012 9.98125 29.8012H29.0688C29.9125 29.8012 30.7216 30.0784 31.3182 30.5717C31.9148 31.065 32.25 31.734 32.25 32.4316V37.6924H38.6125V32.4316C38.6125 30.3388 37.607 28.3316 35.8172 26.8518C34.0274 25.3719 31.5999 24.5405 29.0688 24.5405ZM19.525 21.9101C22.0418 21.9101 24.502 21.2931 26.5946 20.137C28.6872 18.9808 30.3182 17.3376 31.2814 15.4151C32.2445 13.4925 32.4965 11.377 32.0055 9.33603C31.5145 7.29506 30.3026 5.42031 28.5229 3.94886C26.7433 2.47741 24.4759 1.47533 22.0075 1.06936C19.5391 0.663386 16.9805 0.871746 14.6554 1.66809C12.3302 2.46444 10.3428 3.813 8.94455 5.54325C7.54631 7.2735 6.8 9.30772 6.8 11.3887C6.8 14.1791 8.14067 16.8553 10.5271 18.8285C12.9135 20.8016 16.1501 21.9101 19.525 21.9101ZM19.525 6.12793C20.7834 6.12793 22.0135 6.43647 23.0598 7.01452C24.1061 7.59258 24.9216 8.41419 25.4032 9.37547C25.8847 10.3367 26.0107 11.3945 25.7652 12.415C25.5198 13.4355 24.9138 14.3728 24.024 15.1086C23.1342 15.8443 22.0005 16.3453 20.7663 16.5483C19.5321 16.7513 18.2528 16.6471 17.0902 16.249C15.9276 15.8508 14.9339 15.1765 14.2348 14.3114C13.5357 13.4463 13.1625 12.4291 13.1625 11.3887C13.1625 9.99343 13.8328 8.65534 15.026 7.66876C16.2192 6.68218 17.8376 6.12793 19.525 6.12793ZM79.9688 61.3657H60.8813C58.3501 61.3657 55.9226 62.197 54.1328 63.6769C52.343 65.1568 51.3375 67.1639 51.3375 69.2568V74.5175H57.7V69.2568C57.7 68.5592 58.0352 67.8901 58.6318 67.3968C59.2284 66.9035 60.0375 66.6264 60.8813 66.6264H79.9688C80.8125 66.6264 81.6216 66.9035 82.2182 67.3968C82.8148 67.8901 83.15 68.5592 83.15 69.2568V74.5175H89.5125V69.2568C89.5125 67.1639 88.507 65.1568 86.7172 63.6769C84.9274 62.197 82.4999 61.3657 79.9688 61.3657ZM57.7 48.2138C57.7 50.2948 58.4463 52.329 59.8446 54.0592C61.2428 55.7895 63.2302 57.1381 65.5554 57.9344C67.8806 58.7307 70.4391 58.9391 72.9075 58.5331C75.3759 58.1272 77.6433 57.1251 79.4229 55.6536C81.2026 54.1822 82.4145 52.3074 82.9055 50.2665C83.3965 48.2255 83.1445 46.11 82.1814 44.1874C81.2183 42.2649 79.5873 40.6217 77.4946 39.4655C75.402 38.3094 72.9418 37.6924 70.425 37.6924C67.0501 37.6924 63.8135 38.8009 61.4271 40.774C59.0407 42.7472 57.7 45.4234 57.7 48.2138ZM76.7875 48.2138C76.7875 49.2543 76.4144 50.2714 75.7152 51.1365C75.0161 52.0017 74.0224 52.6759 72.8598 53.0741C71.6972 53.4723 70.4179 53.5765 69.1837 53.3735C67.9495 53.1705 66.8158 52.6695 65.926 51.9337C65.0362 51.198 64.4303 50.2606 64.1848 49.2401C63.9393 48.2197 64.0653 47.1619 64.5468 46.2006C65.0284 45.2394 65.8439 44.4177 66.8902 43.8397C67.9365 43.2616 69.1666 42.9531 70.425 42.9531C72.1124 42.9531 73.7308 43.5073 74.924 44.4939C76.1172 45.4805 76.7875 46.8186 76.7875 48.2138Z" fill="#9B00C2"/>
</svg>
