<svg width="68" height="70" viewBox="0 0 68 70" fill="none" xmlns="http://www.w3.org/2000/svg">
<path d="M34.0271 69.2355C33.2494 69.2355 32.5241 69.1911 31.8511 69.1023C31.1781 69.0134 30.5602 68.8825 29.9975 68.7095C21.2314 66.0206 14.0559 61.2275 8.47104 54.3301C2.88618 47.4327 0.09375 39.8339 0.09375 31.5336V14.9623C0.09375 13.501 0.606991 12.1858 1.63347 11.0167C2.65996 9.84767 3.98477 9.0001 5.60792 8.47403L31.0579 0.582926C32.0476 0.290663 33.0374 0.144531 34.0271 0.144531C35.0168 0.144531 36.0065 0.290663 36.9962 0.582926L62.4462 8.47403C64.0722 9.0001 65.3984 9.84767 66.4249 11.0167C67.4514 12.1858 67.9632 13.501 67.9604 14.9623V31.5336C67.9604 39.8339 65.168 47.4327 59.5831 54.3301C53.9983 61.2275 46.8228 66.0206 38.0567 68.7095C37.4911 68.8848 36.8732 69.0169 36.2031 69.1058C35.5329 69.1946 34.8075 69.2379 34.0271 69.2355ZM34.0271 62.3966C40.8844 60.643 46.6107 57.1803 51.2058 52.0084C55.801 46.8365 58.4874 41.0637 59.265 34.69H34.0271V7.07117L8.57708 14.9623V33.1118C8.57708 33.521 8.64778 34.0471 8.78917 34.69H34.0271V62.3966Z" fill="#9B00C2"/>
</svg>
