<svg width="80" height="80" viewBox="0 0 7.6 7.6" xmlns="http://www.w3.org/2000/svg" baseProfile="full" xml:space="preserve"><path d="M3.803 1.701a0.533 0.533 0 1 1 0 1.067 0.533 0.533 0 0 1 0 -1.067Zm-0.533 1.739c-0.072 0.035 -0.189 0.344 -0.125 0.389l-0.347 -0.061c0.235 -0.085 0.283 -0.229 0.301 -0.488l-0.019 -0.163c0.077 -0.064 0.192 -0.208 0.293 -0.208h0.853a0.427 0.427 0 0 1 0.272 0.109l0.051 0.184c0 0.216 0.165 0.283 0.339 0.389l-0.243 -0.005a0.368 0.368 0 0 0 -0.176 0.037 0.595 0.595 0 0 0 -0.139 -0.184l0.011 0.269c-0.224 0.208 -0.339 0.597 -0.339 0.597l-0.037 0.192 -0.115 0.005a1.413 1.413 0 0 1 -0.224 -0.019 1.251 1.251 0 0 0 -0.381 -0.565l0.021 -0.483Zm-0.795 -0.744a0.533 0.533 0 1 1 0 1.067 0.533 0.533 0 0 1 0 -1.067Zm-0.533 1.736c-0.072 0.035 -0.213 0.32 -0.213 0.32s-0.072 0.107 -0.107 0.533l-0.32 -0.107 0.107 -0.533s0.213 -0.747 0.64 -0.747h0.853c0.427 0 0.64 0.747 0.64 0.747l0.107 0.533 -0.32 0.107c-0.035 -0.427 -0.107 -0.533 -0.107 -0.533s-0.141 -0.285 -0.213 -0.32l0.045 0.968a1.461 1.461 0 0 1 -1.152 -0.045l0.043 -0.925ZM5.173 2.491c0.293 0.011 0.533 0.259 0.533 0.552a0.509 0.509 0 0 1 -0.533 0.515 0.557 0.557 0 0 1 -0.533 -0.552 0.509 0.509 0 0 1 0.533 -0.515Zm-0.533 1.723c-0.072 0.032 -0.213 0.312 -0.213 0.312s-0.072 0.104 -0.107 0.531l-0.32 -0.117 0.107 -0.531s0.213 -0.739 0.64 -0.723l0.853 0.029c0.427 0.016 0.64 0.771 0.64 0.771l0.107 0.536 -0.32 0.096c-0.035 -0.427 -0.107 -0.536 -0.107 -0.536s-0.141 -0.291 -0.213 -0.328l0.045 0.968a1.411 1.411 0 0 1 -0.525 0.08 1.469 1.469 0 0 1 -0.629 -0.165l0.043 -0.923Z"/></svg>